# xmcd
#
# Track frame offsets: 
#        150
#        12751
#        22442
#        33100
#        44331
#        55455
#        65986
#        85491
#        99407
#        117499
#        136115
#
# Disc length: 1874 seconds
#
# Revision: 0
# Processed by: cddbd v1.5.2PL0 Copyright (c) Steve Scherf et al.
# Submitted via: ExactAudioCopy v0.95b4
#
DISCID=9a07500b
DTITLE=Tom Wheeler - Tom Wheeler
DYEAR=1900
DGENRE=Country
TTITLE0=Country Is A Friend Of Mine
TTITLE1=Pass This Way Again
TTITLE2=Mother Nature Smiling
TTITLE3=Mountain Song
TTITLE4=Sweet Dreams
TTITLE5=Pretty Lady
TTITLE6=Music In The Water
TTITLE7=Whoops There I Go
TTITLE8=A Fine Day In The Country
TTITLE9=Spring Time In Sunnyside
TTITLE10=When I'm Gone
EXTD=
EXTT0=
EXTT1=
EXTT2=
EXTT3=
EXTT4=
EXTT5=
EXTT6=
EXTT7=
EXTT8=
EXTT9=
EXTT10=
PLAYORDER=
